<svg width="33" height="32" viewBox="0 0 33 32" fill="none" xmlns="http://www.w3.org/2000/svg">
<path fill-rule="evenodd" clip-rule="evenodd" d="M28.4999 4H16.4999C15.0272 4 13.8333 5.19391 13.8333 6.66667V14.6667L13.8365 14.7998C13.9059 16.2107 15.0718 17.3333 16.4999 17.3333H20.1373L21.9697 19.7374L22.0263 19.8028C22.3056 20.086 22.7813 20.0642 23.0302 19.7373L24.8606 17.3333H28.4999C29.9727 17.3333 31.1666 16.1394 31.1666 14.6667V6.66667C31.1666 5.19391 29.9727 4 28.4999 4ZM16.4999 5.33333H28.4999C29.2363 5.33333 29.8333 5.93029 29.8333 6.66667V14.6667C29.8333 15.403 29.2363 16 28.4999 16H24.5313L24.4539 16.0045C24.2752 16.0254 24.1113 16.1179 24.0009 16.2627L22.4999 18.2327L20.9982 16.2626C20.8721 16.0971 20.676 16 20.4679 16H16.4999C15.7635 16 15.1666 15.403 15.1666 14.6667V6.66667C15.1666 5.93029 15.7635 5.33333 16.4999 5.33333ZM12.4999 13.3333V12H8.49992L8.31331 12.0026C4.7177 12.1014 1.83325 15.0472 1.83325 18.6667L1.8358 18.8527C1.93079 22.3145 4.66825 25.1278 8.11822 25.3226L8.12925 25.3227L9.96967 27.7374L10.0263 27.8028C10.3056 28.086 10.7812 28.0642 11.0302 27.7374L12.8699 25.3227L13.0892 25.3077C16.4963 25.0093 19.1666 22.1487 19.1666 18.6667H17.8333L17.8307 18.8322C17.7436 21.6906 15.4066 23.9848 12.5286 23.9999L12.4408 24.0062C12.2676 24.0301 12.1092 24.1215 12.0018 24.2625L10.4993 26.2327L8.9975 24.2619L8.94025 24.1962C8.81806 24.0732 8.65166 24.0017 8.47599 23.9994L8.33175 23.9975L8.16695 23.9902C5.37644 23.8234 3.16659 21.498 3.16659 18.6667C3.16659 15.7211 5.5544 13.3333 8.49992 13.3333H12.4999Z" fill="#424750"/>
<path fill-rule="evenodd" clip-rule="evenodd" d="M19.4334 9.99998C19.2861 9.99998 19.1667 10.1194 19.1667 10.2666V11.0666L19.1722 11.1204C19.197 11.2419 19.3045 11.3333 19.4334 11.3333H19.8334L19.9509 11.3367C20.9619 11.3953 21.7714 12.2048 21.83 13.2158L21.8334 13.3333V13.7333L21.8388 13.7871C21.8637 13.9086 21.9712 14 22.1001 14H22.9001C23.0474 14 23.1667 13.8806 23.1667 13.7333V13.3333L23.1701 13.2158C23.231 12.1659 24.1016 11.3333 25.1667 11.3333H25.5667C25.714 11.3333 25.8334 11.2139 25.8334 11.0666V10.2666L25.828 10.2129C25.8031 10.0914 25.6956 9.99998 25.5667 9.99998H25.1667L25.0492 9.99658C24.0382 9.93801 23.2287 9.12848 23.1701 8.11749L23.1667 7.99998V7.59998L23.1613 7.54624C23.1365 7.42472 23.0289 7.33331 22.9001 7.33331H22.1001C21.9528 7.33331 21.8334 7.4527 21.8334 7.59998V7.99998L21.83 8.11749C21.7692 9.16737 20.8985 9.99998 19.8334 9.99998H19.4334ZM22.4719 9.3236L22.4994 9.27143L22.5849 9.41952C22.9131 9.95374 23.4018 10.3895 23.9314 10.666C23.3537 10.9689 22.8245 11.4601 22.5007 12.0619C22.1756 11.4601 21.6465 10.9689 21.0687 10.6673C21.6297 10.3732 22.1449 9.90157 22.4719 9.3236Z" fill="#A63489"/>
<circle cx="6.83325" cy="18.6667" r="1" fill="#9DC797"/>
<circle cx="14.1667" cy="18.6667" r="1" fill="#9DC797"/>
<circle cx="10.5001" cy="18.6666" r="1.33333" fill="#9DC797"/>
</svg>
