<svg width="33" height="32" viewBox="0 0 33 32" fill="none" xmlns="http://www.w3.org/2000/svg">
<rect x="27.3094" y="26.6666" width="2.66667" height="2.66667" rx="1" fill="#9DC797"/>
<rect x="3.30945" y="7.33337" width="2" height="2" rx="1" fill="#9DC797"/>
<rect x="3.30945" y="2.66663" width="2" height="2" rx="1" fill="#9DC797"/>
<path fill-rule="evenodd" clip-rule="evenodd" d="M22.9095 15.3333C22.7622 15.3333 22.6428 15.4527 22.6428 15.6V16.4L22.6482 16.4537C22.6731 16.5752 22.7806 16.6666 22.9095 16.6666H23.3095L23.427 16.67C24.438 16.7286 25.2475 17.5381 25.3061 18.5491L25.3095 18.6666V19.0666L25.3149 19.1204C25.3398 19.2419 25.4473 19.3333 25.5762 19.3333H26.3762C26.5234 19.3333 26.6428 19.2139 26.6428 19.0666V18.6666L26.6462 18.5491C26.707 17.4992 27.5777 16.6666 28.6428 16.6666H29.0428C29.1901 16.6666 29.3095 16.5472 29.3095 16.4V15.6L29.3041 15.5462C29.2792 15.4247 29.1717 15.3333 29.0428 15.3333H28.6428L28.5253 15.3299C27.5143 15.2713 26.7048 14.4618 26.6462 13.4508L26.6428 13.3333V12.9333L26.6374 12.8796C26.6125 12.758 26.505 12.6666 26.3762 12.6666H25.5762C25.4289 12.6666 25.3095 12.786 25.3095 12.9333V13.3333L25.3061 13.4508C25.2453 14.5007 24.3746 15.3333 23.3095 15.3333H22.9095ZM25.948 14.6569L25.9755 14.6047L26.0609 14.7528C26.3891 15.2871 26.8779 15.7229 27.4075 15.9993C26.8298 16.3022 26.3006 16.7934 25.9768 17.3952C25.6517 16.7934 25.1225 16.3022 24.5448 16.0006C25.1057 15.7065 25.6209 15.2349 25.948 14.6569Z" fill="#A63489"/>
<path d="M9.97616 8.66663H16.6428V9.99996H9.97616V8.66663Z" fill="#424750"/>
<path d="M16.6428 11.3333H9.97616V12.6666H16.6428V11.3333Z" fill="#424750"/>
<path d="M9.97616 14H13.9762V15.3333H9.97616V14Z" fill="#424750"/>
<path d="M13.3095 24.6666C14.0459 24.6666 14.6428 24.0697 14.6428 23.3333C14.6428 22.5969 14.0459 22 13.3095 22C12.5731 22 11.9762 22.5969 11.9762 23.3333C11.9762 24.0697 12.5731 24.6666 13.3095 24.6666Z" fill="#424750"/>
<path fill-rule="evenodd" clip-rule="evenodd" d="M23.3095 4.66663C25.1504 4.66663 26.6428 6.15901 26.6428 7.99996V11H25.3095V7.99996C25.3095 6.89539 24.4141 5.99996 23.3095 5.99996H22.6431C23.0615 6.55707 23.3095 7.24956 23.3095 7.99996V13H21.9762V7.99996C21.9762 6.89539 21.0807 5.99996 19.9762 5.99996H19.3097C19.7282 6.55707 19.9762 7.24956 19.9762 7.99996V24C19.9762 24.7504 19.7282 25.4429 19.3097 26H19.9762C21.0807 26 21.9762 25.1045 21.9762 24V19.3333H23.3095V24C23.3095 24.7504 23.0615 25.4429 22.6431 26H23.3095C24.4141 26 25.3095 25.1045 25.3095 24V20.6666H26.6428V24C26.6428 25.8409 25.1504 27.3333 23.3095 27.3333H9.97616C8.13521 27.3333 6.64282 25.8409 6.64282 24V7.99996C6.64282 6.15901 8.13521 4.66663 9.97616 4.66663H23.3095ZM9.97616 5.99996C8.87159 5.99996 7.97616 6.89539 7.97616 7.99996V24C7.97616 25.1045 8.87159 26 9.97616 26H16.6428C17.7474 26 18.6428 25.1045 18.6428 24V7.99996C18.6428 6.89539 17.7474 5.99996 16.6428 5.99996H9.97616Z" fill="#424750"/>
</svg>
