<svg width="40" height="41" viewBox="0 0 40 41" fill="none" xmlns="http://www.w3.org/2000/svg">
<path fill-rule="evenodd" clip-rule="evenodd" d="M1.16671 6.33333C0.982612 6.33333 0.833374 6.48257 0.833374 6.66667V7.66667L0.840146 7.73385C0.871228 7.88574 1.00562 8 1.16671 8H1.66671L1.8136 8.00424C3.07734 8.07747 4.08924 9.08937 4.16246 10.3531L4.16671 10.5V11L4.17348 11.0672C4.20456 11.2191 4.33896 11.3333 4.50004 11.3333H5.50004C5.68414 11.3333 5.83337 11.1841 5.83337 11V10.5L5.83762 10.3531C5.91366 9.04077 7.00197 8 8.33337 8H8.83337C9.01747 8 9.16671 7.85076 9.16671 7.66667V6.66667L9.15994 6.59949C9.12885 6.44759 8.99446 6.33333 8.83337 6.33333H8.33337L8.18648 6.32909C6.92275 6.25587 5.91084 5.24396 5.83762 3.98023L5.83337 3.83333V3.33333L5.8266 3.26616C5.79552 3.11426 5.66112 3 5.50004 3H4.50004C4.31595 3 4.16671 3.14924 4.16671 3.33333V3.83333L4.16246 3.98023C4.08643 5.29257 2.99811 6.33333 1.66671 6.33333H1.16671ZM4.96481 5.48785L4.99921 5.42264L5.106 5.60775C5.51626 6.27553 6.12725 6.82028 6.78921 7.16581C6.06707 7.54446 5.40559 8.15849 5.00087 8.91069C4.59449 8.15849 3.93301 7.54446 3.21087 7.16752C3.91203 6.79987 4.556 6.21032 4.96481 5.48785Z" fill="#A63489"/>
<rect x="32.5" y="31.3333" width="3.33333" height="3.33334" rx="1" fill="#9DC797"/>
<rect x="13.3334" y="3" width="2.5" height="2.5" rx="1" fill="#9DC797"/>
<rect x="1.66663" y="13.8333" width="2.5" height="2.5" rx="1" fill="#9DC797"/>
<path d="M20 8V9.66667H21.6667C28.11 9.66667 33.3333 14.89 33.3333 21.3333C33.3333 27.7767 28.11 33 21.6667 33C15.3104 33 10.1414 27.9169 10.0028 21.5939L10 21.3333H8.33333C8.33333 28.6971 14.3029 34.6667 21.6667 34.6667C29.0305 34.6667 35 28.6971 35 21.3333C35 14.0572 29.1717 8.14233 21.9291 8.00253L21.6667 8H20Z" fill="#424750"/>
<path d="M9.86979 10.5C11.1786 10.5 12.2396 11.5882 12.2396 12.9306C12.2396 13.6107 11.9672 14.2255 11.5283 14.6667C11.9672 15.1078 12.2396 15.7227 12.2396 16.4028C12.2396 17.7004 11.2481 18.7605 9.99982 18.8297L9.86979 18.8333H7.5V17.4444H9.86979C10.4307 17.4444 10.8854 16.9781 10.8854 16.4028C10.8854 15.8613 10.4826 15.4164 9.9676 15.3659L9.86979 15.3611H8.17708V13.9722H9.86979C10.4307 13.9722 10.8854 13.5059 10.8854 12.9306C10.8854 12.3891 10.4826 11.9441 9.9676 11.8937L9.86979 11.8889H7.5V10.5H9.86979Z" fill="#9DC797"/>
<path fill-rule="evenodd" clip-rule="evenodd" d="M15.625 10.5C14.1292 10.5 12.9167 11.7437 12.9167 13.2778V16.0556C12.9167 17.5897 14.1292 18.8333 15.625 18.8333C17.1208 18.8333 18.3333 17.5897 18.3333 16.0556V13.2778C18.3333 11.7437 17.1208 10.5 15.625 10.5ZM15.625 11.8889C16.3729 11.8889 16.9792 12.5107 16.9792 13.2778V16.0556C16.9792 16.8226 16.3729 17.4444 15.625 17.4444C14.8771 17.4444 14.2708 16.8226 14.2708 16.0556V13.2778C14.2708 12.5107 14.8771 11.8889 15.625 11.8889Z" fill="#9DC797"/>
<path d="M20 14.6667V22.5318L26.4091 26.3333L27.5 24.7603L22.0455 21.6142V14.6667H20Z" fill="#424750"/>
</svg>
