<svg width="32" height="32" viewBox="0 0 32 32" fill="none" xmlns="http://www.w3.org/2000/svg">
<path fill-rule="evenodd" clip-rule="evenodd" d="M4.26667 6.66667C4.11939 6.66667 4 6.78606 4 6.93333V7.73333L4.00542 7.78708C4.03028 7.90859 4.1378 8 4.26667 8H4.66667L4.78418 8.0034C5.79517 8.06197 6.60469 8.8715 6.66327 9.88249L6.66667 10V10.4L6.67208 10.4537C6.69695 10.5753 6.80447 10.6667 6.93333 10.6667H7.73333C7.88061 10.6667 8 10.5473 8 10.4V10L8.0034 9.88249C8.06423 8.83261 8.93488 8 10 8H10.4C10.5473 8 10.6667 7.88061 10.6667 7.73333V6.93333L10.6612 6.87959C10.6364 6.75808 10.5289 6.66667 10.4 6.66667H10L9.88249 6.66327C8.8715 6.60469 8.06197 5.79517 8.0034 4.78418L8 4.66667V4.26667L7.99458 4.21292C7.96972 4.09141 7.8622 4 7.73333 4H6.93333C6.78606 4 6.66667 4.11939 6.66667 4.26667V4.66667L6.66327 4.78418C6.60244 5.83405 5.73179 6.66667 4.66667 6.66667H4.26667ZM7.30515 5.99028L7.33267 5.93811L7.4181 6.08621C7.74631 6.62043 8.2351 7.05623 8.76467 7.33265C8.18696 7.63557 7.65777 8.1268 7.334 8.72855C7.00889 8.1268 6.47971 7.63557 5.902 7.33402C6.46293 7.0399 6.9781 6.56826 7.30515 5.99028Z" fill="#A63489"/>
<path fill-rule="evenodd" clip-rule="evenodd" d="M17.4142 5.13812L16.4714 4.19531L13.3334 7.33338L16.4714 10.4715L17.4142 9.52865L15.8853 8.00005H16.6667L16.8713 8.00242C21.5632 8.1111 25.3334 11.9486 25.3334 16.6667C25.3334 21.4532 21.4532 25.3334 16.6667 25.3334C11.8802 25.3334 8.00002 21.4532 8.00002 16.6667H6.66669L6.66883 16.8759C6.7802 22.3022 11.2137 26.6667 16.6667 26.6667C22.1895 26.6667 26.6667 22.1896 26.6667 16.6667C26.6667 11.1439 22.1895 6.66672 16.6667 6.66672H15.8853L17.4142 5.13812Z" fill="#424750"/>
<rect x="24.6667" y="24.6667" width="2.66667" height="2.66667" rx="1" fill="#9DC797"/>
<rect x="10.6667" y="2" width="2" height="2" rx="1" fill="#9DC797"/>
<path d="M13.6666 12.6667C14.9553 12.6667 16 13.7114 16 15.0001C16 16.2458 15.0238 17.2635 13.7947 17.33L13.6666 17.3334H12V16.0001H13.6666C14.2189 16.0001 14.6666 15.5524 14.6666 15.0001C14.6666 14.4803 14.2701 14.0531 13.763 14.0047L13.6666 14.0001H11.3333V12.6667H13.6666Z" fill="#9DC797"/>
<path d="M13.6666 16C14.9553 16 16 17.0447 16 18.3333C16 19.579 15.0238 20.5968 13.7947 20.6632L13.6666 20.6667H11.3333V19.3333H13.6666C14.2189 19.3333 14.6666 18.8856 14.6666 18.3333C14.6666 17.8135 14.2701 17.3864 13.763 17.3379L13.6666 17.3333H12V16H13.6666Z" fill="#9DC797"/>
<path fill-rule="evenodd" clip-rule="evenodd" d="M16.6667 15.3334C16.6667 13.8607 17.8606 12.6667 19.3334 12.6667C20.8061 12.6667 22 13.8607 22 15.3334V18.0001C22 19.4728 20.8061 20.6667 19.3334 20.6667C17.8606 20.6667 16.6667 19.4728 16.6667 18.0001V15.3334ZM20.6667 15.3334C20.6667 14.597 20.0697 14.0001 19.3334 14.0001C18.597 14.0001 18 14.597 18 15.3334V18.0001C18 18.7365 18.597 19.3334 19.3334 19.3334C20.0697 19.3334 20.6667 18.7365 20.6667 18.0001V15.3334Z" fill="#9DC797"/>
<rect x="2" y="10.6667" width="2" height="2" rx="1" fill="#9DC797"/>
</svg>
