<svg width="244" height="28" viewBox="0 0 244 28" fill="none" xmlns="http://www.w3.org/2000/svg">
<path d="M109.079 0.277171C109.215 0.102288 109.424 0 109.646 0H110.364C110.513 0 110.597 0.171784 110.505 0.289682L105.921 6.18437C105.785 6.35925 105.575 6.46154 105.354 6.46154H104.636C104.487 6.46154 104.403 6.28976 104.494 6.17186L109.079 0.277171Z" fill="#E6123D"/>
<path d="M99.6019 0.717949C99.99 0.717949 100.276 0.975305 100.315 1.3453L100.32 1.43262V3.57664C100.32 3.96324 100.061 4.24809 99.6896 4.28681L99.6019 4.29131H97.0895C96.7014 4.29131 96.4151 4.03407 96.3762 3.66398L96.3717 3.57664V1.43262C96.3717 1.04615 96.6302 0.761189 97.0018 0.722452L97.0895 0.717949H99.6019Z" fill="#E6123D"/>
<path d="M132.33 5.85122C131.928 5.85122 131.598 5.54879 131.556 5.16077L131.551 5.07639L131.551 1.49279C131.551 1.09336 131.855 0.764573 132.245 0.72251L132.33 0.717964H134.51C134.912 0.717964 135.242 1.02012 135.285 1.40836L135.289 1.49279L135.29 2.50422L137.798 2.50405C138.199 2.50405 138.529 2.80621 138.572 3.19445L138.576 3.27888V5.07639C138.576 5.47554 138.273 5.80457 137.883 5.84667L137.798 5.85122H132.33Z" fill="#E6123D"/>
<path d="M240.606 22.8668C241.007 22.8668 241.337 23.1692 241.38 23.5572L241.384 23.6416L241.384 27.2252C241.384 27.6246 241.08 27.9534 240.69 27.9955L240.606 28H238.425C238.023 28 237.693 27.6978 237.651 27.3096L237.646 27.2252L237.645 26.2137L235.138 26.2139C234.736 26.2139 234.406 25.9118 234.364 25.5235L234.359 25.4391V23.6416C234.359 23.2424 234.663 22.9134 235.053 22.8713L235.138 22.8668H240.606Z" fill="#E6123D"/>
<path d="M212.684 5.87872C212.726 6.26674 213.057 6.56916 213.458 6.56916H218.926L219.011 6.56461C219.401 6.52252 219.704 6.19348 219.704 5.79434V3.99683L219.7 3.9124C219.658 3.52416 219.327 3.222 218.926 3.222L216.418 3.22217L216.417 2.21074L216.413 2.12631C216.371 1.73807 216.04 1.43591 215.639 1.43591H213.458L213.373 1.44046C212.983 1.48252 212.68 1.81131 212.68 2.21074L212.679 5.79434L212.684 5.87872Z" fill="#E6123D"/>
<path d="M78.4218 6.46154C78.8101 6.46154 79.0961 6.7189 79.135 7.0889L79.1396 7.17621V9.32023C79.1396 9.70683 78.8812 9.99168 78.5095 10.0304L78.4218 10.0349H72.6793C72.291 10.0349 72.0049 9.77767 71.966 9.40757L71.9614 9.32023V7.17621C71.9614 6.78974 72.2198 6.50478 72.5915 6.46604L72.6793 6.46154H78.4218Z" fill="#E6123D"/>
<path d="M230.622 23.5132C230.583 23.1432 230.297 22.8859 229.909 22.8859H224.167L224.079 22.8904C223.707 22.9291 223.449 23.2141 223.449 23.6005V25.7445L223.453 25.8319C223.492 26.202 223.778 26.4592 224.167 26.4592H229.909L229.997 26.4547C230.368 26.416 230.627 26.1311 230.627 25.7445V23.6005L230.622 23.5132Z" fill="#E6123D"/>
<path d="M20.9858 22.8859C21.3741 22.8859 21.6602 23.1432 21.6991 23.5132L21.7036 23.6005V25.7445C21.7036 26.1311 21.4453 26.416 21.0736 26.4547L20.9858 26.4592H15.2433C14.855 26.4592 14.5689 26.202 14.53 25.8319L14.5255 25.7445V23.6005C14.5255 23.2141 14.7839 22.9291 15.1556 22.8904L15.2433 22.8859H20.9858Z" fill="#E6123D"/>
<path d="M196.52 3.49915C196.481 3.12915 196.195 2.8718 195.807 2.8718H193.295L193.207 2.8763C192.835 2.91504 192.577 3.2 192.577 3.58647V5.73048L192.581 5.81783C192.62 6.18792 192.907 6.44516 193.295 6.44516H195.807L195.895 6.44066C196.266 6.40193 196.525 6.11709 196.525 5.73048V3.58647L196.52 3.49915Z" fill="#E6123D"/>
<path d="M10.218 2.8718C10.6061 2.8718 10.8923 3.12915 10.9313 3.49915L10.9358 3.58647V5.73048C10.9358 6.11709 10.6773 6.40193 10.3057 6.44066L10.218 6.44516H8.06384C7.67567 6.44516 7.38946 6.18792 7.35055 5.81783L7.34603 5.73048V3.58647C7.34603 3.2 7.60452 2.91504 7.97614 2.8763L8.06384 2.8718H10.218Z" fill="#E6123D"/>
<path d="M49.3408 3.49915C49.3019 3.12915 49.0157 2.8718 48.6275 2.8718H46.1151L46.0274 2.8763C45.6558 2.91504 45.3973 3.2 45.3973 3.58647V5.73048L45.4019 5.81783C45.4408 6.18792 45.727 6.44516 46.1151 6.44516H48.6275L48.7152 6.44066C49.0868 6.40193 49.3453 6.11709 49.3453 5.73048V3.58647L49.3408 3.49915Z" fill="#E6123D"/>
<path d="M162.418 11.2633C162.338 8.34284 160.373 6.44844 157.396 6.44844H150.936L150.848 6.45295C150.477 6.49172 150.218 6.77691 150.218 7.16311V9.30713L150.222 9.39437C150.261 9.76408 150.548 10.0218 150.936 10.0218H157.396L157.521 10.0244C158.413 10.0624 158.832 10.5194 158.832 11.4511V15.7392L158.829 15.8633C158.791 16.7519 158.332 17.1685 157.396 17.1685H150.936L150.848 17.173C150.477 17.2118 150.218 17.4968 150.218 17.8832V20.0272L150.222 20.1145C150.261 20.4843 150.548 20.7419 150.936 20.7419H157.396L157.585 20.7393C160.518 20.6591 162.421 18.7029 162.421 15.7392V11.4511L162.418 11.2633Z" fill="#E6123D"/>
<path d="M31.3895 0C31.1679 0 30.9588 0.102288 30.8228 0.277171L26.238 6.17186C26.1463 6.28976 26.2303 6.46154 26.3797 6.46154H27.0975C27.319 6.46154 27.5282 6.35925 27.6642 6.18437L32.2489 0.289682C32.3406 0.171784 32.2566 0 32.1073 0H31.3895Z" fill="#E6123D"/>
<path fill-rule="evenodd" clip-rule="evenodd" d="M171.756 12.9231V17.2308H170.32C169.131 17.2308 168.167 16.2665 168.167 15.0769V2.8718C168.167 2.47528 167.845 2.15385 167.449 2.15385H165.295C164.898 2.15385 164.577 2.47528 164.577 2.8718V15.0769C164.577 18.249 167.148 20.8205 170.32 20.8205H185.756C187.059 20.8205 188.253 20.3583 189.184 19.589L189.822 20.5112C189.956 20.7049 190.177 20.8205 190.413 20.8205H194.703C196.337 20.8205 197.811 20.1383 198.857 19.0432L199.874 20.5112C200.008 20.7049 200.228 20.8205 200.464 20.8205H204.754C206.173 20.8205 207.472 20.3059 208.474 19.4532L209.207 20.5112C209.341 20.7049 209.562 20.8205 209.797 20.8205H212.642C214.067 20.8205 215.371 20.3014 216.375 19.442L217.115 20.5112C217.249 20.7049 217.47 20.8205 217.705 20.8205H218.396C219.892 20.8205 221.255 20.2483 222.277 19.3108L222.886 20.443C223.012 20.6755 223.254 20.8205 223.519 20.8205H228.474C229.89 20.8205 231.17 20.2348 232.083 19.2925L232.927 20.5112C233.061 20.7049 233.282 20.8205 233.517 20.8205H237.808C240.98 20.8205 243.551 18.249 243.551 15.0769V10.7692C243.551 10.3727 243.23 10.0513 242.833 10.0513H240.68C240.283 10.0513 239.962 10.3727 239.962 10.7692V15.0769C239.962 16.2665 238.997 17.2308 237.808 17.2308H233.292C233.427 16.7758 233.5 16.2938 233.5 15.7949V10.7692C233.5 10.3727 233.179 10.0513 232.782 10.0513H230.628C230.232 10.0513 229.91 10.3727 229.91 10.7692V15.7949C229.91 16.5879 229.267 17.2308 228.474 17.2308H224.167V10.7692C224.167 10.3727 223.845 10.0513 223.449 10.0513H221.267C220.871 10.0513 220.549 10.3727 220.549 10.7692V15.0769C220.549 16.2665 219.585 17.2308 218.396 17.2308H217.968C218.237 16.5656 218.385 15.8386 218.385 15.0769V10.7692C218.385 10.3727 218.064 10.0513 217.667 10.0513H215.513C215.117 10.0513 214.795 10.3727 214.795 10.7692V15.0769C214.795 16.2665 213.831 17.2308 212.642 17.2308H210.081C210.35 16.5656 210.498 15.8386 210.498 15.0769V10.7692C210.498 10.3727 210.177 10.0513 209.78 10.0513H207.626C207.23 10.0513 206.908 10.3727 206.908 10.7692V15.0769C206.908 16.2665 205.944 17.2308 204.754 17.2308H200.029C200.298 16.5656 200.447 15.8386 200.447 15.0769V10.7692C200.447 10.3727 200.125 10.0513 199.729 10.0513H197.575C197.178 10.0513 196.857 10.3727 196.857 10.7692V15.0769C196.857 16.2665 195.893 17.2308 194.703 17.2308H190.835C191.033 16.6694 191.141 16.0653 191.141 15.4359C191.141 12.4621 188.73 10.0513 185.756 10.0513L182.475 10.0513C181.482 8.33452 179.626 7.17949 177.5 7.17949C174.328 7.17949 171.756 9.75099 171.756 12.9231ZM177.5 10.7692C176.31 10.7692 175.346 11.7335 175.346 12.9231V17.2308H179.654V12.9231C179.654 11.7335 178.689 10.7692 177.5 10.7692ZM183.244 17.2308V13.641H185.756C186.748 13.641 187.551 14.4446 187.551 15.4359C187.551 16.4272 186.748 17.2308 185.756 17.2308H183.244Z" fill="#E6123D"/>
<path fill-rule="evenodd" clip-rule="evenodd" d="M104.269 15.0769C104.269 15.8386 104.121 16.5656 103.852 17.2308H114.317C116.372 17.2308 117.906 15.6957 117.906 13.641V12.9231C117.906 10.8684 116.372 9.33334 114.317 9.33334H106.063C105.417 9.33334 105.292 8.75435 105.704 8.25642L111.749 0.53463C112.029 0.19606 112.445 0 112.885 0H115.642C116.197 0 116.501 0.646154 116.147 1.07369L112.523 5.74359H114.317C118.433 5.74359 121.495 8.80612 121.495 12.9231V13.641C121.495 14.97 121.176 16.1891 120.606 17.2308H124.344C125.534 17.2308 126.498 16.2665 126.498 15.0769V10.7692C126.498 10.3727 126.819 10.0513 127.216 10.0513H129.37C129.766 10.0513 130.088 10.3727 130.088 10.7692V15.0769C130.088 15.8386 129.939 16.5656 129.67 17.2308H132.231C133.421 17.2308 134.385 16.2665 134.385 15.0769V10.7692C134.385 10.3727 134.706 10.0513 135.103 10.0513H137.257C137.653 10.0513 137.975 10.3727 137.975 10.7692V15.0769C137.975 15.8386 137.827 16.5656 137.557 17.2308H137.985C139.175 17.2308 140.139 16.2665 140.139 15.0769V10.7692C140.139 10.3727 140.461 10.0513 140.857 10.0513H143.011C143.407 10.0513 143.729 10.3727 143.729 10.7692V15.0769C143.729 18.249 141.157 20.8205 137.985 20.8205H137.295C137.059 20.8205 136.839 20.7049 136.705 20.5112L135.964 19.442C134.96 20.3014 133.656 20.8205 132.231 20.8205H129.387C129.151 20.8205 128.931 20.7049 128.797 20.5112L128.064 19.4532C127.062 20.3059 125.763 20.8205 124.344 20.8205H120.054C119.818 20.8205 119.597 20.7049 119.463 20.5112L118.706 19.4175C117.512 20.3069 116.003 20.8205 114.317 20.8205H87.7459C87.5103 20.8205 87.2897 20.7049 87.1556 20.5112L86.4231 19.4531C85.4209 20.3059 84.122 20.8205 82.703 20.8205H68.3718C65.1997 20.8205 62.6282 18.249 62.6282 15.0769V10.7692C62.6282 10.3727 62.9496 10.0513 63.3461 10.0513H65.5C65.8965 10.0513 66.2179 10.3727 66.2179 10.7692V15.0769C66.2179 16.2665 67.1823 17.2308 68.3718 17.2308H82.703C83.8925 17.2308 84.8568 16.2665 84.8568 15.0769V10.7692C84.8568 10.3727 85.1783 10.0513 85.5748 10.0513H87.7286C88.1251 10.0513 88.4466 10.3727 88.4466 10.7692V15.0769C88.4466 15.8386 88.2983 16.5656 88.0291 17.2308H93.1995C92.9302 16.5656 92.782 15.8386 92.782 15.0769V12.9231C92.782 9.75099 95.3535 7.17949 98.5256 7.17949C101.698 7.17949 104.269 9.75099 104.269 12.9231V15.0769ZM100.679 12.9231V15.0769C100.679 16.2665 99.7151 17.2308 98.5256 17.2308C97.336 17.2308 96.3717 16.2665 96.3717 15.0769V12.9231C96.3717 11.7335 97.336 10.7692 98.5256 10.7692C99.7151 10.7692 100.679 11.7335 100.679 12.9231Z" fill="#E6123D"/>
<path d="M43.239 13.641C43.239 14.97 42.92 16.1891 42.3494 17.2308H48.2415C49.431 17.2308 50.3954 16.2665 50.3954 15.0769V10.7692C50.3954 10.3727 50.7168 10.0513 51.1133 10.0513H53.2672C53.6637 10.0513 53.9851 10.3727 53.9851 10.7692V15.0769C53.9851 18.249 51.4136 20.8205 48.2415 20.8205H43.2331C42.9975 20.8205 42.7769 20.7049 42.6428 20.5112L41.3376 18.626C40.0499 19.9954 38.1974 20.8205 36.0609 20.8205H23.6709L22.5703 19.4148C21.5622 20.2905 20.2458 20.8205 18.8056 20.8205H12.3613C12.1257 20.8205 11.9051 20.7049 11.771 20.5112L10.9826 19.3725V19.3846C10.9826 23.5016 7.9205 26.5641 3.80446 26.5641H3.07107C2.62956 26.5641 2.21261 26.361 1.94044 26.0134L0.404354 24.0513C-0.00724946 23.5534 0.11723 22.9744 0.76326 22.9744H3.80446C5.85877 22.9744 7.39352 21.4393 7.39352 19.3846L7.39283 10.7692C7.39283 10.3727 7.71427 10.0513 8.11078 10.0513H10.2646C10.6611 10.0513 10.9826 10.3727 10.9826 10.7692V17.2308H18.8056C19.9951 17.2308 20.9594 16.2665 20.9594 15.0769V10.7692C20.9594 10.3727 21.2809 10.0513 21.6774 10.0513H23.8312C24.2278 10.0513 24.5492 10.3727 24.5492 10.7692V15.0769C24.5492 15.8386 24.4009 16.5656 24.1317 17.2308H36.0609C38.1152 17.2308 39.65 15.6957 39.65 13.641V12.9231C39.65 10.8684 38.1152 9.33334 36.0609 9.33334H27.8061C27.1601 9.33334 27.0356 8.75435 27.4472 8.25642L33.4925 0.53463C33.7725 0.19606 34.1889 0 34.6281 0H37.3857C37.9405 0 38.2444 0.646154 37.8909 1.07369L34.2664 5.74359H36.0609C40.177 5.74359 43.239 8.80612 43.239 12.9231V13.641Z" fill="#E6123D"/>
<path d="M56.1666 2.8718C56.1666 2.47528 56.488 2.15385 56.8845 2.15385H59.0384C59.4349 2.15385 59.7563 2.47528 59.7563 2.8718V20.1026C59.7563 20.4991 59.4349 20.8205 59.0384 20.8205H56.8845C56.488 20.8205 56.1666 20.4991 56.1666 20.1026V2.8718Z" fill="#E6123D"/>
</svg>
