<svg width="24" height="24" viewBox="0 0 24 24" fill="none" xmlns="http://www.w3.org/2000/svg">
<path d="M7.30051 5.21658C7.59466 5.21658 7.81877 5.49395 7.75574 5.79265L7.44058 7.19371C7.39156 7.40707 7.20246 7.56354 6.98535 7.56354H5.11542C4.82127 7.56354 4.59716 7.28617 4.66019 6.98747L4.96834 5.5864C5.01737 5.37304 5.20646 5.21658 5.42357 5.21658H7.30051ZM4.63217 9.17085C4.41507 9.17085 4.22597 9.32731 4.17695 9.54778L2.45408 18.0608C2.45408 18.0751 2.44708 18.0822 2.44708 18.0893C2.41206 18.2173 2.37004 18.388 2.33502 18.5871C2.293 18.7934 2.23698 18.9996 2.15994 19.1988C2.0829 19.3979 1.98485 19.5686 1.86579 19.7108C1.74673 19.8531 1.58565 19.9242 1.38955 19.9242C1.22147 19.9242 1.05338 19.9242 0.885298 19.9171C0.850281 19.9171 0.815263 19.9171 0.773242 19.91C0.542126 19.8957 0.346028 20.0593 0.297004 20.2798L0.00985992 21.6524C-0.0461681 21.9298 0.142927 22.1858 0.416063 22.2142C0.472091 22.2214 0.528119 22.2285 0.584147 22.2356C0.815263 22.264 1.03938 22.2783 1.26349 22.2783C1.8938 22.2783 2.42607 22.2142 2.84628 22.0791C3.26649 21.944 3.62367 21.7449 3.91782 21.4746C4.20496 21.2043 4.43608 20.863 4.61116 20.4505C4.78625 20.038 4.92632 19.5544 5.04538 19.0067L6.95034 9.73981C7.01337 9.44822 6.78926 9.17085 6.49511 9.17085H4.63217ZM10.298 12.6202C10.1439 12.8904 10.0179 13.1678 9.91282 13.4665H14.3951C14.3951 12.6984 14.248 11.8094 13.4846 11.4467C12.322 10.9275 10.8933 11.4538 10.298 12.6202ZM20.0399 6.89501C20.334 5.57218 21.6577 3.60927 22.0499 3.04031C22.0989 2.9763 22.197 2.99053 22.218 3.06876C22.4071 3.68039 22.9744 5.65752 22.7923 6.89501C22.6522 7.57065 22.6312 7.81246 22.4771 8.61611L21.9589 11.1409C21.5667 13.182 20.8033 17.2999 20.5932 17.9115C20.0819 19.4406 18.5271 20.0451 17.0634 20.0238C15.2005 19.9811 12.0279 20.0522 11.4396 20.038C10.7532 20.038 10.1299 19.9455 9.56965 19.7535C6.85929 18.9143 6.43908 15.529 7.30051 13.118C8.33003 9.94606 11.1664 8.40275 14.283 9.38421C16.1459 9.94606 17.1404 11.6814 17.1054 13.6443C17.0424 14.0923 17.2385 15.2587 16.5521 15.2729H9.61867C9.41557 16.8305 10.1509 17.9471 11.8528 17.9044C12.0629 17.9044 14.9413 17.8902 17.1685 17.883C17.5677 17.8048 17.8548 17.5417 18.0159 17.1292C18.0719 16.9727 18.8213 12.9331 19.1925 11.0982L18.1209 11.1266C17.8268 11.1338 17.6727 10.7782 17.8688 10.5648L19.7387 8.49521C19.9068 7.67022 19.9278 7.44975 20.0399 6.89501ZM22.3721 11.1835L23.5627 11.1907C23.8988 11.1907 24.1089 10.8208 23.9408 10.5292L22.8833 8.6659L22.3721 11.1835Z" fill="#FF6200"/>
</svg>
