<svg width="112" height="24" viewBox="0 0 112 24" fill="none" xmlns="http://www.w3.org/2000/svg">
<path d="M14.8148 4.76659C14.4431 4.76659 14.1371 4.48576 14.0979 4.12546L14.0937 4.0471L14.0938 0.719483C14.0938 0.348582 14.3751 0.0432798 14.7364 0.00422128L14.815 0H16.8354C17.2075 0 17.5135 0.280576 17.5527 0.641082L17.5569 0.719483L17.5576 1.65867L19.8811 1.65851C20.2529 1.65851 20.5589 1.93908 20.5981 2.29959L20.6023 2.37799V4.0471C20.6023 4.41774 20.3211 4.72327 19.9597 4.76236L19.8811 4.76659H14.8148Z" fill="white"/>
<path d="M26.731 20.5845C27.0907 20.5845 27.3558 20.8235 27.3918 21.167L27.396 21.2481V23.239C27.396 23.598 27.1567 23.8625 26.8123 23.8984L26.731 23.9026H21.4106C21.0508 23.9026 20.7858 23.6638 20.7497 23.3201L20.7455 23.239V21.2481C20.7455 20.8893 20.9849 20.6246 21.3293 20.5887L21.4106 20.5845H26.731Z" fill="white"/>
<path d="M17.463 15.3333V9.33334C17.463 8.96515 17.1652 8.66667 16.7978 8.66667H14.8023C14.4349 8.66667 14.1371 8.96515 14.1371 9.33334V17.3333C14.1371 19.2413 12.7158 20.6667 10.8125 20.6667H7.99482C7.39628 20.6667 7.28095 21.2043 7.6623 21.6667L9.08548 23.4886C9.33764 23.8114 9.72395 24 10.133 24H10.8125C14.626 24 17.463 21.1562 17.463 17.3333V17.322L18.1934 18.3795C18.3177 18.5593 18.5221 18.6667 18.7403 18.6667H24.0458C26.9848 18.6667 29.3673 16.2789 29.3673 13.3333V9.33334C29.3673 8.96515 29.0695 8.66667 28.7021 8.66667H26.7066C26.3392 8.66667 26.0414 8.96515 26.0414 9.33334V13.3333C26.0414 14.4379 25.1479 15.3333 24.0458 15.3333H17.463Z" fill="white"/>
<path d="M64.038 4.7666C63.6663 4.7666 63.3603 4.48577 63.3211 4.12547L63.3169 4.04711L63.317 0.719494C63.317 0.348592 63.5983 0.04329 63.9596 0.00423145L64.0382 1.01725e-05H66.0587C66.4307 1.01725e-05 66.7367 0.280586 66.7759 0.641092L66.7801 0.719494L66.7808 1.65868L69.1043 1.65852C69.4761 1.65852 69.7821 1.93909 69.8213 2.2996L69.8255 2.378V4.04711C69.8255 4.41775 69.5443 4.72328 69.1829 4.76237L69.1043 4.7666H64.038Z" fill="white"/>
<path d="M108.212 0.582549C108.176 0.23898 107.91 6.35783e-06 107.551 6.35783e-06H105.223L105.142 0.00418732C104.797 0.0401573 104.558 0.304764 104.558 0.66363V2.6545L104.562 2.7356C104.598 3.07926 104.863 3.31812 105.223 3.31812H107.551L107.632 3.31394C107.976 3.27799 108.216 3.01349 108.216 2.6545V0.66363L108.212 0.582549Z" fill="white"/>
<path fill-rule="evenodd" clip-rule="evenodd" d="M106.554 18.6667C109.492 18.6667 111.875 16.2789 111.875 13.3333V11.3333C111.875 8.38782 109.492 6 106.554 6C103.615 6 101.232 8.38782 101.232 11.3333V13.3333C101.232 14.0406 101.369 14.7157 101.619 15.3333H96.6192V9.33334C96.6192 8.96515 96.3214 8.66667 95.9541 8.66667H93.9585C93.5911 8.66667 93.2933 8.96515 93.2933 9.33334V17.3333H93.294C93.294 19.2413 91.8721 20.6667 89.9688 20.6667H87.8163C87.2177 20.6667 87.1024 21.2043 87.4837 21.6667L88.9069 23.4886C89.1591 23.8114 89.5454 24 89.9544 24H89.9688C93.7823 24 96.6193 21.1562 96.6193 17.3333L96.6192 17.322L97.3497 18.3795C97.4739 18.5593 97.6783 18.6667 97.8966 18.6667H106.554ZM108.549 13.3333V11.3333C108.549 10.2288 107.656 9.33334 106.554 9.33334C105.451 9.33334 104.558 10.2288 104.558 11.3333V13.3333C104.558 14.4379 105.451 15.3333 106.554 15.3333C107.656 15.3333 108.549 14.4379 108.549 13.3333Z" fill="white"/>
<path fill-rule="evenodd" clip-rule="evenodd" d="M1.17699 9.33334C0.927542 9.95096 0.790178 10.6261 0.790178 11.3333V13.3333C0.790178 16.2789 3.17266 18.6667 6.11161 18.6667C9.05055 18.6667 11.433 16.2789 11.433 13.3333V11.3333C11.433 8.38782 9.05055 6 6.11161 6H0.790178C0.42281 6 0.125 6.29848 0.125 6.66667V8.66667C0.125 9.03486 0.42281 9.33334 0.790178 9.33334H1.17699ZM8.10714 11.3333V13.3333C8.10714 14.4379 7.21371 15.3333 6.11161 15.3333C5.0095 15.3333 4.11607 14.4379 4.11607 13.3333V11.3333C4.11607 10.2288 5.0095 9.33334 6.11161 9.33334C7.21371 9.33334 8.10714 10.2288 8.10714 11.3333Z" fill="white"/>
<path fill-rule="evenodd" clip-rule="evenodd" d="M80.6088 24C84.4223 24 87.2594 21.1562 87.2594 17.3333H87.2634V11.3333C87.2634 8.38782 84.8809 6 81.9419 6C79.003 6 76.6205 8.38782 76.6205 11.3333V13.3333C76.6205 16.2789 79.003 18.6667 81.9419 18.6667C82.5935 18.6667 83.2177 18.5493 83.7947 18.3345C83.3928 19.7189 82.1609 20.6667 80.6088 20.6667H77.7912C77.1926 20.6667 77.0773 21.2043 77.4586 21.6667L78.8818 23.4886C79.134 23.8114 79.5203 24 79.9294 24H80.6088ZM83.9375 11.3333C83.9375 10.2288 83.044 9.33334 81.9419 9.33334C80.8398 9.33334 79.9464 10.2288 79.9464 11.3333V13.3333C79.9464 14.4379 80.8398 15.3333 81.9419 15.3333C83.044 15.3333 83.9375 14.4379 83.9375 13.3333V11.3333Z" fill="white"/>
<path fill-rule="evenodd" clip-rule="evenodd" d="M42.0272 17.3333C42.0272 21.1562 39.1902 24 35.3767 24H34.6972C34.2882 24 33.9019 23.8114 33.6497 23.4886L32.2265 21.6667C31.8452 21.2043 31.9605 20.6667 32.559 20.6667H35.3767C36.9287 20.6667 38.1607 19.7189 38.5626 18.3345C37.9856 18.5493 37.3614 18.6667 36.7098 18.6667C33.7709 18.6667 31.3884 16.2789 31.3884 13.3333V11.3333C31.3884 8.38782 33.7709 6 36.7098 6C39.6488 6 42.0312 8.38782 42.0312 11.3333V17.3333H42.0272ZM38.7053 11.3333V13.3333C38.7053 14.4379 37.8119 15.3333 36.7098 15.3333C35.6077 15.3333 34.7143 14.4379 34.7143 13.3333V11.3333C34.7143 10.2288 35.6077 9.33334 36.7098 9.33334C37.8119 9.33334 38.7053 10.2288 38.7053 11.3333Z" fill="white"/>
<path d="M67.4057 17.3866L68.0916 18.3795C68.2158 18.5593 68.4202 18.6667 68.6385 18.6667H69.2781C72.2171 18.6667 74.5995 16.2788 74.5995 13.3333V9.33333C74.5995 8.96514 74.3017 8.66666 73.9344 8.66666H71.9388C71.5715 8.66666 71.2737 8.96514 71.2737 9.33333V13.3333C71.2737 14.4379 70.3802 15.3333 69.2781 15.3333H68.8816C69.131 14.7157 69.2684 14.0406 69.2684 13.3333V9.33333C69.2684 8.96514 68.9706 8.66666 68.6032 8.66666H66.6077C66.2403 8.66666 65.9425 8.96514 65.9425 9.33333V13.3333C65.9425 14.4379 65.0491 15.3333 63.947 15.3333H62.03V9.33334C62.03 8.96515 61.7321 8.66667 61.3648 8.66667H59.3692C59.0019 8.66667 58.7041 8.96515 58.7041 9.33334V15.3333H58.6607L58.7041 15.3961V17.3333C58.7041 19.2413 57.2828 20.6667 55.3794 20.6667H52.6728C50.7695 20.6667 49.3475 19.2413 49.3475 17.3333H49.3482V12C49.3482 11.6318 49.0504 11.3333 48.683 11.3333H46.6875C46.3201 11.3333 46.0223 11.6318 46.0223 12L46.0223 17.3333C46.0223 21.1562 48.8593 24 52.6728 24H55.3794C58.7344 24 61.3336 21.799 61.9101 18.6667H63.947C65.2674 18.6667 66.4755 18.1846 67.4057 17.3866Z" fill="white"/>
</svg>
